<?xml version="1.0" encoding="UTF-8" standalone="no"?>
<!DOCTYPE svg PUBLIC "-//W3C//DTD SVG 1.1//EN"
 "http://www.w3.org/Graphics/SVG/1.1/DTD/svg11.dtd">
<!-- Generated by graphviz version 2.36.0 (20140111.2315)
 -->
<!-- Title: models_diagram Pages: 1 -->
<svg width="2585pt" height="322pt"
 viewBox="0.00 0.00 2585.00 322.00" xmlns="http://www.w3.org/2000/svg" xmlns:xlink="http://www.w3.org/1999/xlink">
<g id="graph0" class="graph" transform="scale(1 1) rotate(0) translate(4 318)">
<title>models_diagram</title>
<polygon fill="none" stroke="none" points="-4,4 -4,-318 2581,-318 2581,4 -4,4"/>
<!-- _diagram_info -->
<g id="node1" class="node"><title>_diagram_info</title>
<text text-anchor="start" x="7.31226" y="-215.1" font-family="Times,serif" font-size="13.00">Models diagram</text>
<text text-anchor="start" x="7.31226" y="-202.1" font-family="Times,serif" font-size="13.00">Date: Apr 05 2019 &#45; 19:55</text>
<text text-anchor="start" x="7.31226" y="-189.1" font-family="Times,serif" font-size="13.00">Migration version: 20190403000557</text>
<text text-anchor="start" x="7.31226" y="-176.1" font-family="Times,serif" font-size="13.00">Generated by RailRoady 1.5.3</text>
<text text-anchor="start" x="7.31226" y="-163.1" font-family="Times,serif" font-size="13.00">http://railroady.prestonlee.com</text>
</g>
<!-- Agreement -->
<g id="node2" class="node"><title>Agreement</title>
<path fill="none" stroke="black" d="M237.138,-122C237.138,-122 460.862,-122 460.862,-122 466.862,-122 472.862,-128 472.862,-134 472.862,-134 472.862,-252 472.862,-252 472.862,-258 466.862,-264 460.862,-264 460.862,-264 237.138,-264 237.138,-264 231.138,-264 225.138,-258 225.138,-252 225.138,-252 225.138,-134 225.138,-134 225.138,-128 231.138,-122 237.138,-122"/>
<text text-anchor="middle" x="349" y="-248.8" font-family="Times,serif" font-size="14.00">Agreement</text>
<polyline fill="none" stroke="black" points="225.138,-242 472.862,-242 "/>
<text text-anchor="start" x="233.138" y="-226.8" font-family="Times,serif" font-size="14.00">updated_at :timestamp without time zone</text>
<text text-anchor="start" x="233.138" y="-212.8" font-family="Times,serif" font-size="14.00">final_price :integer</text>
<text text-anchor="start" x="233.138" y="-198.8" font-family="Times,serif" font-size="14.00">date :timestamp without time zone</text>
<text text-anchor="start" x="233.138" y="-184.8" font-family="Times,serif" font-size="14.00">payed? :boolean</text>
<text text-anchor="start" x="233.138" y="-170.8" font-family="Times,serif" font-size="14.00">user_id :integer</text>
<text text-anchor="start" x="233.138" y="-156.8" font-family="Times,serif" font-size="14.00">joboffer_id :integer</text>
<text text-anchor="start" x="233.138" y="-142.8" font-family="Times,serif" font-size="14.00">created_at :timestamp without time zone</text>
<text text-anchor="start" x="233.138" y="-128.8" font-family="Times,serif" font-size="14.00">id :bigint</text>
</g>
<!-- ApplicationRecord -->
<g id="node3" class="node"><title>ApplicationRecord</title>
<ellipse fill="none" stroke="black" cx="568" cy="-193" rx="77.094" ry="18"/>
<text text-anchor="middle" x="568" y="-188.8" font-family="Times,serif" font-size="14.00">ApplicationRecord</text>
</g>
<!-- Comment -->
<g id="node4" class="node"><title>Comment</title>
<path fill="none" stroke="black" d="M675.138,-122C675.138,-122 898.862,-122 898.862,-122 904.862,-122 910.862,-128 910.862,-134 910.862,-134 910.862,-252 910.862,-252 910.862,-258 904.862,-264 898.862,-264 898.862,-264 675.138,-264 675.138,-264 669.138,-264 663.138,-258 663.138,-252 663.138,-252 663.138,-134 663.138,-134 663.138,-128 669.138,-122 675.138,-122"/>
<text text-anchor="middle" x="787" y="-248.8" font-family="Times,serif" font-size="14.00">Comment</text>
<polyline fill="none" stroke="black" points="663.138,-242 910.862,-242 "/>
<text text-anchor="start" x="671.138" y="-226.8" font-family="Times,serif" font-size="14.00">updated_at :timestamp without time zone</text>
<text text-anchor="start" x="671.138" y="-212.8" font-family="Times,serif" font-size="14.00">name :character varying</text>
<text text-anchor="start" x="671.138" y="-198.8" font-family="Times,serif" font-size="14.00">comment :character varying</text>
<text text-anchor="start" x="671.138" y="-184.8" font-family="Times,serif" font-size="14.00">price :integer</text>
<text text-anchor="start" x="671.138" y="-170.8" font-family="Times,serif" font-size="14.00">user_id :integer</text>
<text text-anchor="start" x="671.138" y="-156.8" font-family="Times,serif" font-size="14.00">joboffer_id :integer</text>
<text text-anchor="start" x="671.138" y="-142.8" font-family="Times,serif" font-size="14.00">created_at :timestamp without time zone</text>
<text text-anchor="start" x="671.138" y="-128.8" font-family="Times,serif" font-size="14.00">id :bigint</text>
</g>
<!-- Joboffer -->
<g id="node5" class="node"><title>Joboffer</title>
<path fill="none" stroke="black" d="M941.138,-87C941.138,-87 1164.86,-87 1164.86,-87 1170.86,-87 1176.86,-93 1176.86,-99 1176.86,-99 1176.86,-287 1176.86,-287 1176.86,-293 1170.86,-299 1164.86,-299 1164.86,-299 941.138,-299 941.138,-299 935.138,-299 929.138,-293 929.138,-287 929.138,-287 929.138,-99 929.138,-99 929.138,-93 935.138,-87 941.138,-87"/>
<text text-anchor="middle" x="1053" y="-283.8" font-family="Times,serif" font-size="14.00">Joboffer</text>
<polyline fill="none" stroke="black" points="929.138,-277 1176.86,-277 "/>
<text text-anchor="start" x="937.138" y="-261.8" font-family="Times,serif" font-size="14.00">updated_at :timestamp without time zone</text>
<text text-anchor="start" x="937.138" y="-247.8" font-family="Times,serif" font-size="14.00">title :character varying</text>
<text text-anchor="start" x="937.138" y="-233.8" font-family="Times,serif" font-size="14.00">description :character varying</text>
<text text-anchor="start" x="937.138" y="-219.8" font-family="Times,serif" font-size="14.00">photo :character varying</text>
<text text-anchor="start" x="937.138" y="-205.8" font-family="Times,serif" font-size="14.00">start_date :timestamp without time zone</text>
<text text-anchor="start" x="937.138" y="-191.8" font-family="Times,serif" font-size="14.00">end_date :timestamp without time zone</text>
<text text-anchor="start" x="937.138" y="-177.8" font-family="Times,serif" font-size="14.00">budget :integer</text>
<text text-anchor="start" x="937.138" y="-163.8" font-family="Times,serif" font-size="14.00">location_id :integer</text>
<text text-anchor="start" x="937.138" y="-149.8" font-family="Times,serif" font-size="14.00">skill_id :integer</text>
<text text-anchor="start" x="937.138" y="-135.8" font-family="Times,serif" font-size="14.00">user_id :integer</text>
<text text-anchor="start" x="937.138" y="-121.8" font-family="Times,serif" font-size="14.00">conversation_id :integer</text>
<text text-anchor="start" x="937.138" y="-107.8" font-family="Times,serif" font-size="14.00">created_at :timestamp without time zone</text>
<text text-anchor="start" x="937.138" y="-93.8" font-family="Times,serif" font-size="14.00">id :bigint</text>
</g>
<!-- Conversation -->
<g id="node11" class="node"><title>Conversation</title>
<ellipse fill="none" stroke="black" cx="1053" cy="-18" rx="56.8987" ry="18"/>
<text text-anchor="middle" x="1053" y="-13.8" font-family="Times,serif" font-size="14.00">Conversation</text>
</g>
<!-- Joboffer&#45;&gt;Conversation -->
<g id="edge1" class="edge"><title>Joboffer&#45;&gt;Conversation</title>
<path fill="none" stroke="#cc4755" d="M1053,-78.6716C1053,-66.0357 1053,-54.2476 1053,-44.5417"/>
<ellipse fill="none" stroke="#cc4755" cx="1053" cy="-82.8776" rx="4" ry="4"/>
<ellipse fill="#cc4755" stroke="#cc4755" cx="1053" cy="-40.249" rx="4" ry="4"/>
</g>
<!-- Location -->
<g id="node6" class="node"><title>Location</title>
<path fill="none" stroke="black" d="M1207.14,-136C1207.14,-136 1430.86,-136 1430.86,-136 1436.86,-136 1442.86,-142 1442.86,-148 1442.86,-148 1442.86,-238 1442.86,-238 1442.86,-244 1436.86,-250 1430.86,-250 1430.86,-250 1207.14,-250 1207.14,-250 1201.14,-250 1195.14,-244 1195.14,-238 1195.14,-238 1195.14,-148 1195.14,-148 1195.14,-142 1201.14,-136 1207.14,-136"/>
<text text-anchor="middle" x="1319" y="-234.8" font-family="Times,serif" font-size="14.00">Location</text>
<polyline fill="none" stroke="black" points="1195.14,-228 1442.86,-228 "/>
<text text-anchor="start" x="1203.14" y="-212.8" font-family="Times,serif" font-size="14.00">id :bigint</text>
<text text-anchor="start" x="1203.14" y="-198.8" font-family="Times,serif" font-size="14.00">region :character varying</text>
<text text-anchor="start" x="1203.14" y="-184.8" font-family="Times,serif" font-size="14.00">commune :character varying</text>
<text text-anchor="start" x="1203.14" y="-170.8" font-family="Times,serif" font-size="14.00">city :character varying</text>
<text text-anchor="start" x="1203.14" y="-156.8" font-family="Times,serif" font-size="14.00">created_at :timestamp without time zone</text>
<text text-anchor="start" x="1203.14" y="-142.8" font-family="Times,serif" font-size="14.00">updated_at :timestamp without time zone</text>
</g>
<!-- Picture -->
<g id="node7" class="node"><title>Picture</title>
<path fill="none" stroke="black" d="M1473.14,-115C1473.14,-115 1696.86,-115 1696.86,-115 1702.86,-115 1708.86,-121 1708.86,-127 1708.86,-127 1708.86,-259 1708.86,-259 1708.86,-265 1702.86,-271 1696.86,-271 1696.86,-271 1473.14,-271 1473.14,-271 1467.14,-271 1461.14,-265 1461.14,-259 1461.14,-259 1461.14,-127 1461.14,-127 1461.14,-121 1467.14,-115 1473.14,-115"/>
<text text-anchor="middle" x="1585" y="-255.8" font-family="Times,serif" font-size="14.00">Picture</text>
<polyline fill="none" stroke="black" points="1461.14,-249 1708.86,-249 "/>
<text text-anchor="start" x="1469.14" y="-233.8" font-family="Times,serif" font-size="14.00">updated_at :timestamp without time zone</text>
<text text-anchor="start" x="1469.14" y="-219.8" font-family="Times,serif" font-size="14.00">name :character varying</text>
<text text-anchor="start" x="1469.14" y="-205.8" font-family="Times,serif" font-size="14.00">place :character varying</text>
<text text-anchor="start" x="1469.14" y="-191.8" font-family="Times,serif" font-size="14.00">photo :character varying</text>
<text text-anchor="start" x="1469.14" y="-177.8" font-family="Times,serif" font-size="14.00">start_date :timestamp without time zone</text>
<text text-anchor="start" x="1469.14" y="-163.8" font-family="Times,serif" font-size="14.00">end_date :timestamp without time zone</text>
<text text-anchor="start" x="1469.14" y="-149.8" font-family="Times,serif" font-size="14.00">user_id :integer</text>
<text text-anchor="start" x="1469.14" y="-135.8" font-family="Times,serif" font-size="14.00">created_at :timestamp without time zone</text>
<text text-anchor="start" x="1469.14" y="-121.8" font-family="Times,serif" font-size="14.00">id :bigint</text>
</g>
<!-- Rol -->
<g id="node8" class="node"><title>Rol</title>
<path fill="none" stroke="black" d="M1739.14,-150C1739.14,-150 1962.86,-150 1962.86,-150 1968.86,-150 1974.86,-156 1974.86,-162 1974.86,-162 1974.86,-224 1974.86,-224 1974.86,-230 1968.86,-236 1962.86,-236 1962.86,-236 1739.14,-236 1739.14,-236 1733.14,-236 1727.14,-230 1727.14,-224 1727.14,-224 1727.14,-162 1727.14,-162 1727.14,-156 1733.14,-150 1739.14,-150"/>
<text text-anchor="middle" x="1851" y="-220.8" font-family="Times,serif" font-size="14.00">Rol</text>
<polyline fill="none" stroke="black" points="1727.14,-214 1974.86,-214 "/>
<text text-anchor="start" x="1735.14" y="-198.8" font-family="Times,serif" font-size="14.00">id :bigint</text>
<text text-anchor="start" x="1735.14" y="-184.8" font-family="Times,serif" font-size="14.00">name_rol :character varying</text>
<text text-anchor="start" x="1735.14" y="-170.8" font-family="Times,serif" font-size="14.00">created_at :timestamp without time zone</text>
<text text-anchor="start" x="1735.14" y="-156.8" font-family="Times,serif" font-size="14.00">updated_at :timestamp without time zone</text>
</g>
<!-- Skill -->
<g id="node9" class="node"><title>Skill</title>
<path fill="none" stroke="black" d="M2005.14,-143C2005.14,-143 2228.86,-143 2228.86,-143 2234.86,-143 2240.86,-149 2240.86,-155 2240.86,-155 2240.86,-231 2240.86,-231 2240.86,-237 2234.86,-243 2228.86,-243 2228.86,-243 2005.14,-243 2005.14,-243 1999.14,-243 1993.14,-237 1993.14,-231 1993.14,-231 1993.14,-155 1993.14,-155 1993.14,-149 1999.14,-143 2005.14,-143"/>
<text text-anchor="middle" x="2117" y="-227.8" font-family="Times,serif" font-size="14.00">Skill</text>
<polyline fill="none" stroke="black" points="1993.14,-221 2240.86,-221 "/>
<text text-anchor="start" x="2001.14" y="-205.8" font-family="Times,serif" font-size="14.00">id :bigint</text>
<text text-anchor="start" x="2001.14" y="-191.8" font-family="Times,serif" font-size="14.00">name :character varying</text>
<text text-anchor="start" x="2001.14" y="-177.8" font-family="Times,serif" font-size="14.00">user_id :integer</text>
<text text-anchor="start" x="2001.14" y="-163.8" font-family="Times,serif" font-size="14.00">created_at :timestamp without time zone</text>
<text text-anchor="start" x="2001.14" y="-149.8" font-family="Times,serif" font-size="14.00">updated_at :timestamp without time zone</text>
</g>
<!-- User -->
<g id="node10" class="node"><title>User</title>
<path fill="none" stroke="black" d="M2270.37,-73C2270.37,-73 2565.63,-73 2565.63,-73 2571.63,-73 2577.63,-79 2577.63,-85 2577.63,-85 2577.63,-301 2577.63,-301 2577.63,-307 2571.63,-313 2565.63,-313 2565.63,-313 2270.37,-313 2270.37,-313 2264.37,-313 2258.37,-307 2258.37,-301 2258.37,-301 2258.37,-85 2258.37,-85 2258.37,-79 2264.37,-73 2270.37,-73"/>
<text text-anchor="middle" x="2418" y="-297.8" font-family="Times,serif" font-size="14.00">User</text>
<polyline fill="none" stroke="black" points="2258.37,-291 2577.63,-291 "/>
<text text-anchor="start" x="2266.37" y="-275.8" font-family="Times,serif" font-size="14.00">remember_created_at :timestamp without time zone</text>
<text text-anchor="start" x="2266.37" y="-261.8" font-family="Times,serif" font-size="14.00">name :character varying</text>
<text text-anchor="start" x="2266.37" y="-247.8" font-family="Times,serif" font-size="14.00">last_name :character varying</text>
<text text-anchor="start" x="2266.37" y="-233.8" font-family="Times,serif" font-size="14.00">photo :character varying</text>
<text text-anchor="start" x="2266.37" y="-219.8" font-family="Times,serif" font-size="14.00">description :character varying</text>
<text text-anchor="start" x="2266.37" y="-205.8" font-family="Times,serif" font-size="14.00">score :integer</text>
<text text-anchor="start" x="2266.37" y="-191.8" font-family="Times,serif" font-size="14.00">location_id :integer</text>
<text text-anchor="start" x="2266.37" y="-177.8" font-family="Times,serif" font-size="14.00">rol_id :integer</text>
<text text-anchor="start" x="2266.37" y="-163.8" font-family="Times,serif" font-size="14.00">created_at :timestamp without time zone</text>
<text text-anchor="start" x="2266.37" y="-149.8" font-family="Times,serif" font-size="14.00">updated_at :timestamp without time zone</text>
<text text-anchor="start" x="2266.37" y="-135.8" font-family="Times,serif" font-size="14.00">email :character varying</text>
<text text-anchor="start" x="2266.37" y="-121.8" font-family="Times,serif" font-size="14.00">encrypted_password :character varying</text>
<text text-anchor="start" x="2266.37" y="-107.8" font-family="Times,serif" font-size="14.00">reset_password_token :character varying</text>
<text text-anchor="start" x="2266.37" y="-93.8" font-family="Times,serif" font-size="14.00">reset_password_sent_at :timestamp without time zone</text>
<text text-anchor="start" x="2266.37" y="-79.8" font-family="Times,serif" font-size="14.00">id :bigint</text>
</g>
</g>
</svg>
